/vscmnt/brussel_pixiu_data/_data_brussel/112/vsc11236/PredSimResults/SUBJ07opt3D/trackIG/worker_08.mot
version=1
nRows=5
nColumns=50
inDegrees=yes
endheader
                time	         pelvis_tilt	         pelvis_list	     pelvis_rotation	           pelvis_tx	           pelvis_ty	           pelvis_tz	       hip_flexion_r	     hip_adduction_r	      hip_rotation_r	        knee_angle_r	       ankle_angle_r	         mtp_angle_r	       hip_flexion_l	     hip_adduction_l	      hip_rotation_l	        knee_angle_l	       ankle_angle_l	         mtp_angle_l	    lumbar_extension	      lumbar_bending	     lumbar_rotation	 ercspn_r/activation	 intobl_r/activation	 extobl_r/activation	    abd_r/activation	    add_r/activation	hamstrings_r/activation	bifemsh_r/activation	glut_max_r/activation	iliopsoas_r/activation	rect_fem_r/activation	  vasti_r/activation	gastroc_r/activation	 soleus_r/activation	tib_ant_r/activation	 ercspn_l/activation	 intobl_l/activation	 extobl_l/activation	    abd_l/activation	    add_l/activation	hamstrings_l/activation	bifemsh_l/activation	glut_max_l/activation	iliopsoas_l/activation	rect_fem_l/activation	  vasti_l/activation	gastroc_l/activation	 soleus_l/activation	tib_ant_l/activation	
          1.59885518	         -4.27160788	          0.35145742	         -8.26255929	          2.07851173	          0.84669246	          0.01216883	        -15.39355403	         -0.35897260	          4.03979645	         -8.46617241	          7.47503857	         28.85707804	         30.46134801	         -2.20842224	         -4.67564828	         -6.43661445	          2.56586817	          0.28037565	        -11.19174534	          1.20781325	          1.63974596	          0.12556009	          0.00999999	          0.00999999	          0.03141338	          0.01775986	          0.01862642	          0.15598777	          0.01923300	          0.21180628	          0.01177650	          0.01177649	          0.14458071	          0.30115852	          0.01885259	          0.12183628	          0.13599727	          0.00999999	          0.01177649	          0.14339852	          0.08600007	          0.13490501	          0.08564030	          0.03946132	          0.01000000	          0.00999999	          0.00999999	          0.00999999	          0.41377001	
          1.60951421	         -4.26971245	          0.34800517	         -8.31824331	          2.09461258	          0.84513160	          0.01189991	        -15.86914463	         -0.48022981	          3.73344648	         -9.51458511	          6.46078451	         30.42286957	         30.30657127	         -1.99004771	         -4.33211116	         -8.07721581	          2.18708589	          0.26116220	        -11.08718290	          0.80439271	          1.81740527	          0.13726149	          0.00999999	          0.00999999	          0.02667462	          0.03895238	          0.01581661	          0.13245675	          0.01633167	          0.17985494	          0.00999999	          0.00999999	          0.12277047	          0.28132054	          0.01600864	          0.10345707	          0.12840625	          0.00999999	          0.00999999	          0.12176662	          0.07856326	          0.13598256	          0.13835391	          0.03350852	          0.00999999	          0.00999999	          0.01386860	          0.01177649	          0.45787329	
          1.62017325	         -4.26164125	          0.33432373	         -8.32278973	          2.11083318	          0.84378349	          0.01155205	        -16.18226927	         -0.57306841	          3.37759577	        -10.87268957	          5.35003941	         31.91066666	         30.06998843	         -1.82670838	         -4.00483763	         -9.60938879	          1.71533436	          0.25388693	        -10.98434631	          0.41062534	          1.98468635	          0.15707032	          0.00999999	          0.00999999	          0.02265071	          0.03307635	          0.01343070	          0.11247543	          0.01386801	          0.15272353	          0.01000000	          0.00999999	          0.10425033	          0.25851918	          0.01359371	          0.13569450	          0.10903595	          0.00999999	          0.09927078	          0.14402680	          0.07017841	          0.11621082	          0.13831717	          0.02845370	          0.00999999	          0.00999999	          0.01177650	          0.00999999	          0.53969424	
          1.63083228	         -4.24891731	          0.29634952	         -8.28030356	          2.12699174	          0.84280968	          0.01111002	        -16.25508429	         -0.62368023	          2.98846833	        -12.64668560	          4.12219087	         33.25314551	         29.82876597	         -1.68207868	         -3.73671674	        -11.11557138	          1.20913866	          0.23177126	        -10.90295741	          0.04337725	          2.14189413	          0.19676214	          0.00999999	          0.00999999	          0.01923381	          0.04170653	          0.01328751	          0.09550832	          0.01177600	          0.12968493	          0.01000000	          0.00999999	          0.08852400	          0.22351781	          0.01154308	          0.15311902	          0.09258770	          0.00999999	          0.15143603	          0.17255056	          0.06002190	          0.09868022	          0.17267978	          0.02416141	          0.00999999	          0.00999999	          0.00999999	          0.00999999	          0.57080252	
          1.64149132	         -4.23138865	          0.24087185	         -8.19561916	          2.14295873	          0.84234918	          0.01058633	        -16.01812484	         -0.63944818	          2.57082862	        -14.93626529	          2.79584836	         34.29118485	         29.63983052	         -1.54741905	         -3.50879258	        -12.74937779	          0.97728950	          0.20767396	        -10.84962721	         -0.30425067	          2.28674564	          0.24104524	          0.00999999	          0.00999999	          0.01633236	          0.05833941	          0.01470618	          0.08110073	          0.00999999	          0.11012174	          0.00999999	          0.00999999	          0.07517000	          0.18979977	          0.00999999	          0.16301305	          0.07862069	          0.00999999	          0.19707983	          0.20122319	          0.05096749	          0.08379414	          0.20239506	          0.02051662	          0.00999999	          0.01624106	          0.00999999	          0.00999999	          0.56024369	
